# xmcd
#
# Track frame offsets: 
#        150
#        9911
#        21283
#        41283
#        49654
#        58149
#        69198
#        84072
#        101004
#        111491
#        124352
#        131891
#        146404
#        164996
#        180780
#        191839
#        207906
#        223569
#        231405
#        241033
#
# Disc length: 3429 seconds
#
# Revision: 1
# Processed by: cddbd v1.5.2PL0 Copyright (c) Steve Scherf et al.
# Submitted via: ExactAudioCopyFreeDBPlugin 1.0
#
DISCID=1a0d6314
DTITLE=Various Artists / Wild Rockin' And Boppin'
DYEAR=2007
DGENRE=Rockabilly
TTITLE0=The Woodchoppers / 45 Men A Telephone Booth
TTITLE1=Rockin' Carbonara / Rock Billy Boogie
TTITLE2=Wild Bob Burgos And His Houserockers / Birthday Girl
TTITLE3=Shock Therapy / Back Stabbin' Baby
TTITLE4=Something Shocking / Motor Bike Beat
TTITLE5=V8 Rumble / Rock The Joint
TTITLE6=V8 Rumble / Folsom Prison Blues
TTITLE7=Milky Bar Kids / If You Remember Me
TTITLE8=Mark Kelf / All Dressed Up
TTITLE9=Mark Kelf / Give Me Your Lovin'
TTITLE10=Ray Condo & His Hardrock Goners / Your True Love
TTITLE11=Dawg House / Rock Therapy
TTITLE12=The Woodchoppers / Gonna Get Drunk Again
TTITLE13=Wild Bob Burgos And His Houserockers / Restless 'N' Rockin'
TTITLE14=Cincinatti Shakers / Red Hot
TTITLE15=The Continentals- / Can't Help Falling In Love
TTITLE16=Ugly Dog Skiffle Combo / Perfect
TTITLE17=Ray Condo & His Hardrock Goners / What Is This Thing Called L
TTITLE17=ove
TTITLE18=The Scamps / Violent Love
TTITLE19=The Continentals / Can't Help Falling In Love (instrumental)
EXTD=
EXTT0=
EXTT1=
EXTT2=
EXTT3=
EXTT4=
EXTT5=
EXTT6=
EXTT7=
EXTT8=
EXTT9=
EXTT10=
EXTT11=
EXTT12=
EXTT13=
EXTT14=
EXTT15=
EXTT16=
EXTT17=
EXTT18=
EXTT19=
PLAYORDER=
